<?xml version="1.0" encoding="UTF-8" standalone="no"?>
<!-- Created with Inkscape (http://www.inkscape.org/) -->

<svg
   xmlns:dc="http://purl.org/dc/elements/1.1/"
   xmlns:cc="http://creativecommons.org/ns#"
   xmlns:rdf="http://www.w3.org/1999/02/22-rdf-syntax-ns#"
   xmlns:svg="http://www.w3.org/2000/svg"
   xmlns="http://www.w3.org/2000/svg"
   xmlns:sodipodi="http://sodipodi.sourceforge.net/DTD/sodipodi-0.dtd"
   xmlns:inkscape="http://www.inkscape.org/namespaces/inkscape"
   width="48"
   height="48"
   viewBox="0 0 12.7 12.7"
   version="1.1"
   id="svg5194"
   inkscape:export-filename="/home/p3/GreyCortex/git/gcx.domAIn/img/gy_16.png"
   inkscape:export-xdpi="32"
   inkscape:export-ydpi="32"
   inkscape:version="0.92.3 (2405546, 2018-03-11)"
   sodipodi:docname="g_48.svg">
  <defs
     id="defs5188" />
  <sodipodi:namedview
     id="base"
     pagecolor="#ffffff"
     bordercolor="#666666"
     borderopacity="1.0"
     inkscape:pageopacity="0.0"
     inkscape:pageshadow="2"
     inkscape:zoom="15.839192"
     inkscape:cx="44.0009"
     inkscape:cy="12.923853"
     inkscape:document-units="mm"
     inkscape:current-layer="layer1"
     showgrid="false"
     units="px"
     inkscape:window-width="2509"
     inkscape:window-height="1385"
     inkscape:window-x="51"
     inkscape:window-y="27"
     inkscape:window-maximized="1" />
  <metadata
     id="metadata5191">
    <rdf:RDF>
      <cc:Work
         rdf:about="">
        <dc:format>image/svg+xml</dc:format>
        <dc:type
           rdf:resource="http://purl.org/dc/dcmitype/StillImage" />
        <dc:title />
      </cc:Work>
    </rdf:RDF>
  </metadata>
  <g
     inkscape:label="Layer 1"
     inkscape:groupmode="layer"
     id="layer1"
     transform="translate(0,-284.3)">
    <rect
       style="fill:#ffffff;fill-opacity:1;stroke-width:0.23151042"
       id="rect5781"
       width="11.1125"
       height="11.1125"
       x="0.79374999"
       y="285.09375" />
    <rect
       style="fill:#ffb400;fill-opacity:1;stroke-width:0.26458341"
       id="rect5781-3-3-7"
       width="12.7"
       height="12.7"
       x="0"
       y="284.29999"
       inkscape:transform-center-x="8.1517215"
       inkscape:transform-center-y="-3.6749271" />
    <g
       id="g5779">
      <path
         d="M 12.523265,293.03126 H 9.6139575 C 9.497366,293.33963 9.2930336,293.60712 9.014134,293.825 h 3.30562 c 0.05645,-0.16748 0.106283,-0.33972 0.142952,-0.5215 0.02265,-0.0904 0.0416,-0.18136 0.06055,-0.27225 z"
         id="path123"
         inkscape:connector-curvature="0"
         style="fill:#1d1e1c;stroke-width:0.40435043" />
      <path
         d="m 12.682697,290.65001 h 0.0071 c -0.0025,-0.0489 -0.004,-0.0996 -0.0071,-0.14685 z"
         id="path125"
         inkscape:connector-curvature="0"
         style="fill:#ffffff;stroke-width:0.40435043" />
      <path
         d="M 4.4458345,293.03126 H 1.0936607 c 0.090635,0.27463 0.2002166,0.53974 0.3279266,0.79374 h 3.6442572 c -0.2566562,-0.22066 -0.4601674,-0.49133 -0.62001,-0.79374 z"
         id="path127"
         inkscape:connector-curvature="0"
         style="fill:#1d1e1c;stroke-width:0.40435043" />
      <path
         d="M 4.1438622,289.85625 H 0.8893258 c -0.048611,0.25877 -0.079502,0.52388 -0.095571,0.79376 h 3.2228149 c 0.020195,-0.27027 0.062204,-0.53738 0.1273035,-0.79376 z"
         id="path129"
         inkscape:connector-curvature="0"
         style="fill:#1d1e1c;stroke-width:0.40435043" />
      <path
         d="M 4.0161539,291.44375 H 0.79375 c 0.016069,0.27027 0.04696,0.53539 0.095571,0.79375 h 3.2541255 c -0.064679,-0.25638 -0.1067039,-0.52308 -0.1273035,-0.79375 z"
         id="path131"
         inkscape:connector-curvature="0"
         style="fill:#1d1e1c;stroke-width:0.40435043" />
      <path
         d="m 6.9423527,297 c 0.00623,0 0.012768,-3.9e-4 0.018949,-3.9e-4 1.1386755,-0.003 2.3045416,-0.26154 3.2792553,-0.79336 H 3.7108838 C 4.6184463,296.71107 5.7080984,297 6.9423527,297 Z"
         id="path133"
         inkscape:connector-curvature="0"
         style="fill:#1d1e1c;stroke-width:0.40435043" />
      <path
         d="m 6.9613035,285.09455 c -0.00623,0 -0.012768,-8e-4 -0.018949,-8e-4 -1.2342528,0 -2.3239049,0.28932 -3.2310548,0.79376 h 6.5288473 c -0.9747133,-0.53142 -2.1405789,-0.78978 -3.2788418,-0.79296 z"
         id="path135"
         inkscape:connector-curvature="0"
         style="fill:#1d1e1c;stroke-width:0.40435043" />
      <path
         d="M 5.0662556,288.26876 H 1.4215873 c -0.1277084,0.25438 -0.2372929,0.51951 -0.3279266,0.79374 h 3.3521738 c 0.1598426,-0.30201 0.3637665,-0.57308 0.6204211,-0.79374 z"
         id="path137"
         inkscape:connector-curvature="0"
         style="fill:#1d1e1c;stroke-width:0.40435043" />
      <path
         d="M 11.322383,286.68125 H 2.6138187 c -0.2615998,0.24249 -0.4988911,0.50761 -0.7085823,0.79414 H 11.951868 c -0.178381,-0.29248 -0.388896,-0.558 -0.629485,-0.79414 z"
         id="path139"
         inkscape:connector-curvature="0"
         style="fill:#1d1e1c;stroke-width:0.40435043" />
      <path
         d="m 11.840637,294.80091 c 0.03998,-0.0584 0.07457,-0.12105 0.111235,-0.18216 H 1.9052396 c 0.2096911,0.28614 0.4465713,0.55126 0.7085822,0.79376 h 8.7386392 c 0.183737,-0.18932 0.349346,-0.39252 0.488179,-0.6116 z"
         id="path141"
         inkscape:connector-curvature="0"
         style="fill:#1d1e1c;stroke-width:0.40435043" />
      <path
         d="M 12.7,291.44375 H 7.4614308 v 0.79375 h 5.1870732 c 0.02925,-0.27186 0.04574,-0.53815 0.05149,-0.79375 z"
         id="path143"
         inkscape:connector-curvature="0"
         style="fill:#1d1e1c;stroke-width:0.40435043" />
      <rect
         x="7.4614315"
         y="289.85623"
         width="5.2282696"
         height="0.79374993"
         id="rect151"
         style="fill:#1d1e1c;stroke-width:0.40435043" />
    </g>
    <rect
       style="fill:#c5c5c5;fill-opacity:1;stroke-width:0.04960938"
       id="rect5781-3-6"
       width="2.3812499"
       height="2.3812499"
       x="15.766554"
       y="290.97955" />
    <rect
       style="fill:#ba1b1d;fill-opacity:1;stroke-width:0.04960937"
       id="rect5781-3-5"
       width="2.3812499"
       height="2.3812499"
       x="15.699736"
       y="284.16418" />
    <rect
       style="fill:#ffb400;fill-opacity:1;stroke-width:0.04960938"
       id="rect5781-3-3"
       width="2.3812499"
       height="2.3812499"
       x="15.632919"
       y="287.45496"
       inkscape:transform-center-x="1.5284477"
       inkscape:transform-center-y="-0.68904765" />
    <rect
       style="fill:#71d7ea;fill-opacity:1;stroke-width:0.04960937"
       id="rect5781-3-36"
       width="2.3812499"
       height="2.3812499"
       x="15.800024"
       y="294.58771"
       inkscape:export-xdpi="96"
       inkscape:export-ydpi="96" />
  </g>
</svg>
