<?xml version="1.0" encoding="UTF-8" standalone="no"?>
<!-- Generator: Adobe Illustrator 15.1.0, SVG Export Plug-In . SVG Version: 6.00 Build 0)  -->

<svg
   xmlns:dc="http://purl.org/dc/elements/1.1/"
   xmlns:cc="http://creativecommons.org/ns#"
   xmlns:rdf="http://www.w3.org/1999/02/22-rdf-syntax-ns#"
   xmlns:svg="http://www.w3.org/2000/svg"
   xmlns="http://www.w3.org/2000/svg"
   xmlns:sodipodi="http://sodipodi.sourceforge.net/DTD/sodipodi-0.dtd"
   xmlns:inkscape="http://www.inkscape.org/namespaces/inkscape"
   version="1.1"
   id="Layer_1"
   x="0px"
   y="0px"
   width="300"
   height="40"
   viewBox="0 0 300 40"
   enable-background="new 0 0 320 132"
   xml:space="preserve"
   inkscape:version="0.92.3 (2405546, 2018-03-11)"
   sodipodi:docname="gcx_logo_basic.svg"
   inkscape:export-filename="/home/p3/GreyCortex/git/gcx.domAIn/icons/gcx.png"
   inkscape:export-xdpi="96"
   inkscape:export-ydpi="96"><metadata
     id="metadata417"><rdf:RDF><cc:Work
         rdf:about=""><dc:format>image/svg+xml</dc:format><dc:type
           rdf:resource="http://purl.org/dc/dcmitype/StillImage" /><dc:title></dc:title></cc:Work></rdf:RDF></metadata><defs
     id="defs415" /><sodipodi:namedview
     pagecolor="#ffffff"
     bordercolor="#666666"
     borderopacity="1"
     objecttolerance="10"
     gridtolerance="10"
     guidetolerance="10"
     inkscape:pageopacity="0"
     inkscape:pageshadow="2"
     inkscape:window-width="2509"
     inkscape:window-height="1385"
     id="namedview413"
     showgrid="false"
     inkscape:zoom="3.6375"
     inkscape:cx="150.04964"
     inkscape:cy="-16.098982"
     inkscape:window-x="51"
     inkscape:window-y="27"
     inkscape:window-maximized="1"
     inkscape:current-layer="Layer_1" /><g
     id="g49"
     transform="matrix(1.0101573,0,0,0.99996667,-11.625169,-45.9983)"><path
       d="M 70.335,67.051 V 67 H 49.242 v 2 h 23.789 c -0.612,-0.936 -1.463,-1.657 -2.696,-1.949 z"
       id="path51"
       inkscape:connector-curvature="0"
       style="fill:#1d1e1c" /><rect
       x="49.242001"
       y="59"
       width="7.8150001"
       height="2"
       id="rect53"
       style="fill:#1d1e1c" /><rect
       x="49.242001"
       y="75"
       width="7.8150001"
       height="2"
       id="rect55"
       style="fill:#1d1e1c" /><path
       d="m 67.14,75 c 0.069,0.401 0.138,0.807 0.212,1.209 0.052,0.281 0.1,0.542 0.146,0.791 h 7.732 c -0.109,-0.578 -0.236,-1.242 -0.38,-2 z"
       id="path57"
       inkscape:connector-curvature="0"
       style="fill:#1d1e1c" /><path
       d="m 67.075,61 h 7.837 c 0.082,-0.509 0.128,-1.029 0.128,-1.555 0,-0.154 -0.018,-0.296 -0.024,-0.446 h -7.992 c 0.129,0.297 0.202,0.629 0.202,1.006 0,0.368 -0.061,0.693 -0.151,0.995 z"
       id="path59"
       inkscape:connector-curvature="0"
       style="fill:#1d1e1c" /><path
       d="M 74.7,57.001 C 74.488,56.26 74.18,55.592 73.789,55 H 49.242 v 2.001 z"
       id="path61"
       inkscape:connector-curvature="0"
       style="fill:#1d1e1c" /><rect
       x="49.242001"
       y="71"
       width="7.8150001"
       height="2"
       id="rect63"
       style="fill:#1d1e1c" /><path
       d="M 64.536,51.001 H 49.242 V 53 h 22.59 c -1.971,-1.384 -4.621,-1.999 -7.296,-1.999 z"
       id="path65"
       inkscape:connector-curvature="0"
       style="fill:#1d1e1c" /><rect
       x="49.242001"
       y="79"
       width="7.8150001"
       height="2"
       id="rect67"
       style="fill:#1d1e1c" /><path
       d="m 68.233,81 h 7.731 c 0,0 -0.003,-0.081 -0.36,-2 h -7.739 c 0.368,1.999 0.368,2 0.368,2 z"
       id="path69"
       inkscape:connector-curvature="0"
       style="fill:#1d1e1c" /><path
       d="m 57.058,63 h -7.815 v 2 h 23.881 c 0.511,-0.596 0.92,-1.271 1.226,-2 H 63.612 Z"
       id="path71"
       inkscape:connector-curvature="0"
       style="fill:#1d1e1c" /><path
       d="m 65.603,71 c 0.527,0.516 0.863,1.209 1.1,2 h 7.759 c -0.138,-0.667 -0.299,-1.346 -0.51,-2 z"
       id="path73"
       inkscape:connector-curvature="0"
       style="fill:#1d1e1c" /><rect
       x="79.581001"
       y="59"
       width="7.8150001"
       height="2"
       id="rect75"
       style="fill:#1d1e1c" /><rect
       x="79.581001"
       y="79"
       width="24.326"
       height="2"
       id="rect77"
       style="fill:#1d1e1c" /><rect
       x="79.581001"
       y="75"
       width="24.326"
       height="2"
       id="rect79"
       style="fill:#1d1e1c" /><rect
       x="79.581001"
       y="55"
       width="23.906"
       height="2.0009999"
       id="rect81"
       style="fill:#1d1e1c" /><rect
       x="79.581001"
       y="63"
       width="22.521"
       height="2"
       id="rect83"
       style="fill:#1d1e1c" /><rect
       x="79.581001"
       y="71"
       width="7.8150001"
       height="2"
       id="rect85"
       style="fill:#1d1e1c" /><rect
       x="79.581001"
       y="51.000999"
       width="23.906"
       height="1.999"
       id="rect87"
       style="fill:#1d1e1c" /><polygon
       points="124.696,53 133.38,53 134.539,51.001 125.675,51.001 "
       id="polygon89"
       style="fill:#1d1e1c" /><polygon
       points="124.094,69 125.255,67 114.162,67 115.322,69 "
       id="polygon91"
       style="fill:#1d1e1c" /><rect
       x="115.801"
       y="71"
       width="7.8150001"
       height="2"
       id="rect93"
       style="fill:#1d1e1c" /><rect
       x="115.801"
       y="79"
       width="7.8150001"
       height="2"
       id="rect95"
       style="fill:#1d1e1c" /><rect
       x="115.801"
       y="75"
       width="7.8150001"
       height="2"
       id="rect97"
       style="fill:#1d1e1c" /><polygon
       points="115.7,55 107.198,55 108.358,57.001 116.68,57.001 "
       id="polygon99"
       style="fill:#1d1e1c" /><polygon
       points="118.639,61 117.659,59 109.52,59 110.681,61 "
       id="polygon101"
       style="fill:#1d1e1c" /><polygon
       points="128.737,61 129.897,59 121.758,59 120.778,61 "
       id="polygon103"
       style="fill:#1d1e1c" /><polygon
       points="116.321,64.542 116.321,63 111.841,63 113.002,65 126.416,65 127.575,63 122.23,63 122.23,64.542 "
       id="polygon105"
       style="fill:#1d1e1c" /><polygon
       points="131.058,57.001 132.22,55 123.717,55 122.737,57.001 "
       id="polygon107"
       style="fill:#1d1e1c" /><polygon
       points="104.877,51.001 106.037,53 114.722,53 113.742,51.001 "
       id="polygon109"
       style="fill:#1d1e1c" /><path
       d="m 149.669,76.91 c -6.429,0 -9.118,-5.415 -9.118,-10.909 0,-5.494 2.689,-10.909 9.118,-10.909 4.369,0 6.596,2.407 7.478,5.695 h 5.253 c -0.631,-6.176 -5.966,-9.746 -12.73,-9.786 -8.991,0 -14.37,6.818 -14.37,15 0,8.182 5.379,15 14.37,15 7.268,0 12.352,-4.732 12.772,-11.591 h -5.126 c -0.42,4.17 -2.984,7.5 -7.647,7.5 z"
       id="path111"
       inkscape:connector-curvature="0"
       style="fill:#1d1e1c" /><path
       d="m 180.007,51 c -8.991,0 -14.369,6.818 -14.369,15 0,8.182 5.378,15 14.369,15 8.991,0 14.369,-6.817 14.369,-15 0,-8.181 -5.378,-15 -14.369,-15 z m 0,25.91 c -6.428,0 -9.118,-5.415 -9.118,-10.909 0,-5.494 2.69,-10.909 9.118,-10.909 6.428,0 9.117,5.415 9.117,10.909 0,5.494 -2.689,10.909 -9.117,10.909 z"
       id="path113"
       inkscape:connector-curvature="0"
       style="fill:#1d1e1c" /><path
       d="m 218.455,66.757 v -0.084 c 0.966,-0.335 4.958,-1.806 4.958,-7.562 0,-5.083 -3.362,-8.109 -9.916,-8.109 H 199.169 V 81 h 5.252 V 68.648 h 7.731 c 4.832,0 4.987,2.524 5.968,7.941 C 218.918,81 218.918,81 218.918,81 h 5.628 c 0,0 0,0 -1.637,-7.899 -0.964,-4.648 -2.648,-6.092 -4.454,-6.344 z m -5.421,-2.101 h -8.613 v -9.369 h 8.529 c 2.731,0 5.211,0.756 5.211,4.58 0,3.15 -1.807,4.789 -5.127,4.789 z"
       id="path115"
       inkscape:connector-curvature="0"
       style="fill:#1d1e1c" /><polygon
       points="234.634,55.539 234.634,81 239.887,81 239.887,55.539 249.422,55.539 249.422,51.001 225.14,51.001 225.14,55.539 "
       id="polygon117"
       style="fill:#1d1e1c" /><polygon
       points="274.804,81 274.804,76.462 258.165,76.462 258.165,67.682 273.289,67.682 273.289,63.396 258.165,63.396 258.165,55.539 274.51,55.539 274.51,51.001 252.913,51.001 252.913,81 "
       id="polygon119"
       style="fill:#1d1e1c" /><polygon
       points="297.158,81 303.542,81 292.913,65.455 302.829,51.001 296.949,51.001 289.847,61.589 283.041,51.001 276.78,51.001 286.697,65.455 276.066,81 282.076,81 289.679,69.53 "
       id="polygon121"
       style="fill:#1d1e1c" /><path
       d="m 44.93,71 h -7.062 c -0.283,0.777 -0.779,1.451 -1.456,2 h 8.024 c 0.137,-0.422 0.258,-0.856 0.347,-1.314 0.055,-0.228 0.101,-0.457 0.147,-0.686 z"
       id="path123"
       inkscape:connector-curvature="0"
       style="fill:#1d1e1c" /><path
       d="m 45.317,65 h 0.017 c -0.006,-0.123 -0.01,-0.251 -0.017,-0.37 z"
       id="path125"
       inkscape:connector-curvature="0"
       style="fill:#ffffff" /><path
       d="m 25.323,71 h -8.137 c 0.22,0.692 0.486,1.36 0.796,2 h 8.846 c -0.623,-0.556 -1.117,-1.238 -1.505,-2 z"
       id="path127"
       inkscape:connector-curvature="0"
       style="fill:#1d1e1c" /><path
       d="m 24.59,63 h -7.9 c -0.118,0.652 -0.193,1.32 -0.232,2 h 7.823 c 0.049,-0.681 0.151,-1.354 0.309,-2 z"
       id="path129"
       inkscape:connector-curvature="0"
       style="fill:#1d1e1c" /><path
       d="m 24.28,67 h -7.822 c 0.039,0.681 0.114,1.349 0.232,2 h 7.899 C 24.432,68.354 24.33,67.682 24.28,67 Z"
       id="path131"
       inkscape:connector-curvature="0"
       style="fill:#1d1e1c" /><path
       d="m 31.383,81 c 0.015,0 0.031,-0.001 0.046,-0.001 2.764,-0.008 5.594,-0.659 7.96,-1.999 h -15.85 c 2.203,1.272 4.848,2 7.844,2 z"
       id="path133"
       inkscape:connector-curvature="0"
       style="fill:#1d1e1c" /><path
       d="M 31.429,51.002 C 31.414,51.002 31.398,51 31.383,51 c -2.996,0 -5.641,0.729 -7.843,2 h 15.848 c -2.366,-1.339 -5.196,-1.99 -7.959,-1.998 z"
       id="path135"
       inkscape:connector-curvature="0"
       style="fill:#1d1e1c" /><path
       d="m 26.829,59 h -8.847 c -0.31,0.641 -0.576,1.309 -0.796,2 h 8.137 c 0.388,-0.761 0.883,-1.444 1.506,-2 z"
       id="path137"
       inkscape:connector-curvature="0"
       style="fill:#1d1e1c" /><path
       d="M 42.015,55 H 20.876 c -0.635,0.611 -1.211,1.279 -1.72,2.001 H 43.543 C 43.11,56.264 42.599,55.595 42.015,55 Z"
       id="path139"
       inkscape:connector-curvature="0"
       style="fill:#1d1e1c" /><path
       d="M 43.273,75.459 C 43.37,75.312 43.454,75.154 43.543,75 H 19.156 c 0.509,0.721 1.084,1.389 1.72,2 h 21.212 c 0.446,-0.477 0.848,-0.989 1.185,-1.541 z"
       id="path141"
       inkscape:connector-curvature="0"
       style="fill:#1d1e1c" /><path
       d="M 45.359,67 H 32.643 v 2 h 12.591 c 0.071,-0.685 0.111,-1.356 0.125,-2 z"
       id="path143"
       inkscape:connector-curvature="0"
       style="fill:#1d1e1c" /><rect
       x="79.581001"
       y="67"
       width="22.521"
       height="2"
       id="rect145"
       style="fill:#1d1e1c" /><polygon
       points="119.708,63.186 119.8,63 119.618,63 "
       id="polygon147"
       style="fill:#ffffff" /><polyline
       points="116.321,63 116.321,64.542 122.23,64.542 122.23,63  "
       id="polyline149"
       style="fill:#1d1e1c" /><rect
       x="32.643002"
       y="63"
       width="12.691"
       height="2"
       id="rect151"
       style="fill:#1d1e1c" /></g></svg>